<svg xmlns="http://www.w3.org/2000/svg" xmlns:xlink="http://www.w3.org/1999/xlink" width="400" zoomAndPan="magnify" viewBox="0 0 300 299.999988" height="400" preserveAspectRatio="xMidYMid meet" version="1.0"><path fill="#00d65f" d="M 150 0 C 67.5 0 0 67.5 0 150 C 0 232.5 67.5 300 150 300 C 232.5 300 300 232.5 300 150 C 300 67.5 232.5 0 150 0 Z M 210.855469 216.089844 C 208.035156 216.089844 206.625 214.679688 203.804688 213.269531 C 182.640625 200.566406 155.835938 193.515625 127.621094 193.515625 C 112.09375 193.515625 95.175781 196.335938 81.058594 199.15625 C 78.238281 199.15625 75.421875 200.566406 74.011719 200.566406 C 68.371094 200.566406 64.140625 196.335938 64.140625 190.695312 C 64.140625 185.054688 66.960938 180.824219 72.601562 180.824219 C 90.945312 176.59375 109.289062 173.773438 129.046875 173.773438 C 161.488281 173.773438 191.128906 182.234375 216.523438 196.351562 C 219.34375 199.171875 222.164062 200.578125 222.164062 206.21875 C 219.316406 213.269531 215.085938 216.089844 210.855469 216.089844 Z M 226.363281 176.59375 C 223.546875 176.59375 220.726562 175.183594 217.90625 173.773438 C 193.921875 158.25 160.050781 149.789062 123.375 149.789062 C 105.03125 149.789062 88.09375 152.609375 75.40625 155.429688 C 72.585938 156.839844 71.175781 156.839844 68.355469 156.839844 C 61.304688 156.839844 57.058594 151.199219 57.058594 145.546875 C 57.058594 138.496094 59.878906 135.675781 66.929688 132.839844 C 83.863281 128.609375 100.800781 124.378906 124.785156 124.378906 C 164.296875 124.378906 200.96875 134.25 232.019531 152.59375 C 236.25 155.414062 239.070312 159.644531 239.070312 163.890625 C 237.660156 170.941406 233.429688 176.59375 226.363281 176.59375 Z M 244.710938 131.429688 C 241.890625 131.429688 240.480469 130.019531 236.25 128.609375 C 208.035156 113.085938 167.113281 103.214844 127.605469 103.214844 C 107.851562 103.214844 86.683594 106.035156 68.339844 110.265625 C 65.519531 110.265625 64.109375 111.675781 59.878906 111.675781 C 51.421875 113.101562 45.765625 106.035156 45.765625 97.574219 C 45.765625 89.113281 49.996094 84.871094 55.636719 83.460938 C 78.226562 77.820312 102.210938 75 127.605469 75 C 171.34375 75 216.496094 84.871094 251.773438 103.214844 C 256.003906 106.035156 260.234375 110.265625 260.234375 117.328125 C 258.824219 125.789062 253.171875 131.429688 244.710938 131.429688 Z M 244.710938 131.429688 " fill-opacity="1" fill-rule="nonzero"/></svg>